STARTFONT 2.1
COMMENT $XConsortium: luIS08.bdf,v 1.7 94/04/02 16:23:22 gildea Exp $
COMMENT  (c) Copyright Bigelow & Holmes 1986, 1985. Lucida is a registered
COMMENT  trademark of Bigelow & Holmes. See LEGAL NOTICE file for terms 
COMMENT  of the license. 
COMMENT  
COMMENT  Translation to ISO8859-2 by Cub Soft;  Petr.Kolar@vslib.cz
COMMENT  
FONT -B&H-Lucida-Medium-I-Normal-Sans-11-80-100-100-P-62-ISO8859-2
SIZE 8 100 100
FONTBOUNDINGBOX 20 12 -6 -2
STARTPROPERTIES 20
COMMENT Begin LogicalFontDescription
FONTNAME_REGISTRY ""
FOUNDRY "B&H"
FAMILY_NAME "Lucida"
WEIGHT_NAME "Medium"
SLANT "I"
SETWIDTH_NAME "Normal"
ADD_STYLE_NAME "Sans"
PIXEL_SIZE 11
POINT_SIZE 80
RESOLUTION_X 100
RESOLUTION_Y 100
SPACING "P"
AVERAGE_WIDTH 62
CHARSET_REGISTRY "ISO8859"
CHARSET_ENCODING "2"
COMMENT END LogicalFontDescription
FONT_ASCENT 10
FONT_DESCENT 3
DEFAULT_CHAR 0
COPYRIGHT "Copyright Bigelow & Holmes 1986, 1985., Copyright 1996 Cub Soft"
FACE_NAME "Lucida Sans Italic"
ENDPROPERTIES
CHARS 191
STARTCHAR space
ENCODING 32
SWIDTH 316 0
DWIDTH 3 0
BBX 1 1 0 0
BITMAP
00
ENDCHAR
STARTCHAR exclam
ENCODING 33
SWIDTH 193 0
DWIDTH 3 0
BBX 3 8 1 0
BITMAP
20
20
40
40
40
40
00
80
ENDCHAR
STARTCHAR quotedbl
ENCODING 34
SWIDTH 361 0
DWIDTH 4 0
BBX 3 3 2 5
BITMAP
a0
a0
a0
ENDCHAR
STARTCHAR numbersign
ENCODING 35
SWIDTH 633 0
DWIDTH 7 0
BBX 7 8 1 0
BITMAP
1a
14
7e
28
28
fc
50
b0
ENDCHAR
STARTCHAR dollar
ENCODING 36
SWIDTH 633 0
DWIDTH 7 0
BBX 5 10 2 -1
BITMAP
10
38
50
50
20
30
28
30
f0
40
ENDCHAR
STARTCHAR percent
ENCODING 37
SWIDTH 741 0
DWIDTH 8 0
BBX 8 8 1 0
BITMAP
33
52
54
68
16
2a
4a
8c
ENDCHAR
STARTCHAR ampersand
ENCODING 38
SWIDTH 701 0
DWIDTH 8 0
BBX 7 8 1 0
BITMAP
1c
24
2c
30
d2
9e
8c
74
ENDCHAR
STARTCHAR apostrophe
ENCODING 39
SWIDTH 217 0
DWIDTH 2 0
BBX 2 3 2 5
BITMAP
40
c0
80
ENDCHAR
STARTCHAR parenleft
ENCODING 40
SWIDTH 325 0
DWIDTH 4 0
BBX 4 10 1 -2
BITMAP
10
20
40
40
80
80
80
80
80
40
ENDCHAR
STARTCHAR parenright
ENCODING 41
SWIDTH 325 0
DWIDTH 4 0
BBX 4 10 0 -2
BITMAP
20
20
10
10
10
20
20
20
40
80
ENDCHAR
STARTCHAR asterisk
ENCODING 42
SWIDTH 470 0
DWIDTH 5 0
BBX 4 4 2 4
BITMAP
20
f0
60
a0
ENDCHAR
STARTCHAR plus
ENCODING 43
SWIDTH 633 0
DWIDTH 7 0
BBX 7 7 1 0
BITMAP
08
10
10
fe
10
10
20
ENDCHAR
STARTCHAR comma
ENCODING 44
SWIDTH 316 0
DWIDTH 3 0
BBX 2 4 1 -2
BITMAP
40
c0
40
80
ENDCHAR
STARTCHAR minus
ENCODING 45
SWIDTH 633 0
DWIDTH 7 0
BBX 7 1 1 3
BITMAP
fe
ENDCHAR
STARTCHAR period
ENCODING 46
SWIDTH 316 0
DWIDTH 3 0
BBX 2 1 1 0
BITMAP
c0
ENDCHAR
STARTCHAR slash
ENCODING 47
SWIDTH 482 0
DWIDTH 5 0
BBX 7 10 0 -2
BITMAP
02
04
08
08
10
10
20
40
40
80
ENDCHAR
STARTCHAR zero
ENCODING 48
SWIDTH 633 0
DWIDTH 7 0
BBX 6 8 1 0
BITMAP
38
4c
44
84
84
88
98
70
ENDCHAR
STARTCHAR one
ENCODING 49
SWIDTH 633 0
DWIDTH 7 0
BBX 3 8 3 0
BITMAP
e0
20
40
40
40
40
c0
80
ENDCHAR
STARTCHAR two
ENCODING 50
SWIDTH 633 0
DWIDTH 7 0
BBX 6 8 1 0
BITMAP
38
64
04
08
10
20
40
f8
ENDCHAR
STARTCHAR three
ENCODING 51
SWIDTH 633 0
DWIDTH 7 0
BBX 6 8 1 0
BITMAP
78
0c
08
70
18
08
18
f0
ENDCHAR
STARTCHAR four
ENCODING 52
SWIDTH 633 0
DWIDTH 7 0
BBX 6 8 1 0
BITMAP
0c
1c
38
28
48
fc
08
10
ENDCHAR
STARTCHAR five
ENCODING 53
SWIDTH 633 0
DWIDTH 7 0
BBX 6 8 1 0
BITMAP
3c
40
40
70
18
08
18
f0
ENDCHAR
STARTCHAR six
ENCODING 54
SWIDTH 633 0
DWIDTH 7 0
BBX 6 8 1 0
BITMAP
1c
60
40
f8
c8
88
88
70
ENDCHAR
STARTCHAR seven
ENCODING 55
SWIDTH 633 0
DWIDTH 7 0
BBX 6 8 2 0
BITMAP
7c
0c
18
30
20
40
c0
80
ENDCHAR
STARTCHAR eight
ENCODING 56
SWIDTH 633 0
DWIDTH 7 0
BBX 6 8 1 0
BITMAP
38
44
4c
30
58
88
88
70
ENDCHAR
STARTCHAR nine
ENCODING 57
SWIDTH 633 0
DWIDTH 7 0
BBX 6 8 1 0
BITMAP
38
44
44
4c
7c
08
18
e0
ENDCHAR
STARTCHAR colon
ENCODING 58
SWIDTH 316 0
DWIDTH 3 0
BBX 2 6 1 0
BITMAP
40
00
00
00
00
80
ENDCHAR
STARTCHAR semicolon
ENCODING 59
SWIDTH 316 0
DWIDTH 3 0
BBX 3 8 1 -2
BITMAP
20
00
00
00
00
c0
80
80
ENDCHAR
STARTCHAR less
ENCODING 60
SWIDTH 633 0
DWIDTH 7 0
BBX 7 7 1 0
BITMAP
02
0c
30
c0
60
18
04
ENDCHAR
STARTCHAR equal
ENCODING 61
SWIDTH 633 0
DWIDTH 7 0
BBX 7 4 1 1
BITMAP
fe
00
00
fe
ENDCHAR
STARTCHAR greater
ENCODING 62
SWIDTH 633 0
DWIDTH 7 0
BBX 7 7 0 0
BITMAP
40
30
0c
06
18
60
80
ENDCHAR
STARTCHAR question
ENCODING 63
SWIDTH 464 0
DWIDTH 5 0
BBX 4 8 1 0
BITMAP
f0
10
10
20
40
c0
00
80
ENDCHAR
STARTCHAR at
ENCODING 64
SWIDTH 858 0
DWIDTH 9 0
BBX 8 8 1 0
BITMAP
1e
63
9d
a5
b9
be
c0
78
ENDCHAR
STARTCHAR A
ENCODING 65
SWIDTH 687 0
DWIDTH 8 0
BBX 7 8 0 0
BITMAP
0c
0c
14
34
24
7e
42
82
ENDCHAR
STARTCHAR B
ENCODING 66
SWIDTH 593 0
DWIDTH 7 0
BBX 6 8 1 0
BITMAP
7c
44
48
78
48
c8
88
f0
ENDCHAR
STARTCHAR C
ENCODING 67
SWIDTH 679 0
DWIDTH 7 0
BBX 7 8 1 0
BITMAP
1e
60
40
c0
80
80
c4
78
ENDCHAR
STARTCHAR D
ENCODING 68
SWIDTH 743 0
DWIDTH 8 0
BBX 8 8 1 0
BITMAP
3e
63
41
41
41
42
86
f8
ENDCHAR
STARTCHAR E
ENCODING 69
SWIDTH 547 0
DWIDTH 6 0
BBX 6 8 1 0
BITMAP
7c
40
40
78
40
c0
80
f8
ENDCHAR
STARTCHAR F
ENCODING 70
SWIDTH 536 0
DWIDTH 6 0
BBX 6 8 1 0
BITMAP
7c
40
40
40
78
c0
80
80
ENDCHAR
STARTCHAR G
ENCODING 71
SWIDTH 702 0
DWIDTH 8 0
BBX 7 8 1 0
BITMAP
1e
60
40
80
84
84
c4
78
ENDCHAR
STARTCHAR H
ENCODING 72
SWIDTH 735 0
DWIDTH 8 0
BBX 8 8 1 0
BITMAP
21
43
42
7e
42
42
86
84
ENDCHAR
STARTCHAR I
ENCODING 73
SWIDTH 289 0
DWIDTH 3 0
BBX 3 8 1 0
BITMAP
20
20
40
40
40
40
80
80
ENDCHAR
STARTCHAR J
ENCODING 74
SWIDTH 408 0
DWIDTH 4 0
BBX 5 10 0 -2
BITMAP
08
08
18
10
10
10
10
10
20
e0
ENDCHAR
STARTCHAR K
ENCODING 75
SWIDTH 635 0
DWIDTH 7 0
BBX 7 8 1 0
BITMAP
26
4c
58
70
70
50
88
8c
ENDCHAR
STARTCHAR L
ENCODING 76
SWIDTH 545 0
DWIDTH 6 0
BBX 5 8 1 0
BITMAP
60
40
40
40
40
c0
80
f8
ENDCHAR
STARTCHAR M
ENCODING 77
SWIDTH 828 0
DWIDTH 9 0
BBX 9 8 1 0
BITMAP
2180
6180
5300
5500
5500
5900
9900
8200
ENDCHAR
STARTCHAR N
ENCODING 78
SWIDTH 741 0
DWIDTH 8 0
BBX 8 8 1 0
BITMAP
21
61
52
52
4a
4a
86
84
ENDCHAR
STARTCHAR O
ENCODING 79
SWIDTH 777 0
DWIDTH 9 0
BBX 8 8 1 0
BITMAP
1e
22
43
81
82
82
c4
78
ENDCHAR
STARTCHAR P
ENCODING 80
SWIDTH 575 0
DWIDTH 6 0
BBX 6 8 1 0
BITMAP
7c
44
44
48
70
c0
80
80
ENDCHAR
STARTCHAR Q
ENCODING 81
SWIDTH 777 0
DWIDTH 9 0
BBX 8 10 1 -2
BITMAP
1e
22
43
81
82
82
c4
78
0c
03
ENDCHAR
STARTCHAR R
ENCODING 82
SWIDTH 632 0
DWIDTH 7 0
BBX 6 8 1 0
BITMAP
7c
44
44
48
70
d0
88
8c
ENDCHAR
STARTCHAR S
ENCODING 83
SWIDTH 553 0
DWIDTH 6 0
BBX 6 8 1 0
BITMAP
3c
60
60
30
18
08
88
f0
ENDCHAR
STARTCHAR T
ENCODING 84
SWIDTH 623 0
DWIDTH 7 0
BBX 7 8 1 0
BITMAP
fe
10
10
20
20
20
20
60
ENDCHAR
STARTCHAR U
ENCODING 85
SWIDTH 693 0
DWIDTH 8 0
BBX 7 8 1 0
BITMAP
42
42
44
c4
84
84
88
78
ENDCHAR
STARTCHAR V
ENCODING 86
SWIDTH 687 0
DWIDTH 8 0
BBX 7 8 2 0
BITMAP
82
84
c4
48
58
50
60
60
ENDCHAR
STARTCHAR W
ENCODING 87
SWIDTH 886 0
DWIDTH 10 0
BBX 9 8 2 0
BITMAP
8880
8880
9900
9900
aa00
aa00
cc00
cc00
ENDCHAR
STARTCHAR X
ENCODING 88
SWIDTH 620 0
DWIDTH 7 0
BBX 8 8 0 0
BITMAP
23
32
14
18
18
2c
44
c6
ENDCHAR
STARTCHAR Y
ENCODING 89
SWIDTH 608 0
DWIDTH 7 0
BBX 6 8 2 0
BITMAP
8c
48
50
70
20
60
40
40
ENDCHAR
STARTCHAR Z
ENCODING 90
SWIDTH 578 0
DWIDTH 6 0
BBX 7 8 0 0
BITMAP
3e
04
08
18
30
60
40
fc
ENDCHAR
STARTCHAR bracketleft
ENCODING 91
SWIDTH 325 0
DWIDTH 4 0
BBX 4 10 1 -2
BITMAP
30
20
40
40
40
40
40
80
80
c0
ENDCHAR
STARTCHAR backslash
ENCODING 92
SWIDTH 482 0
DWIDTH 5 0
BBX 3 10 2 -2
BITMAP
80
80
40
40
40
40
40
40
20
20
ENDCHAR
STARTCHAR bracketright
ENCODING 93
SWIDTH 325 0
DWIDTH 4 0
BBX 4 10 0 -2
BITMAP
30
10
10
20
20
20
20
20
40
c0
ENDCHAR
STARTCHAR asciicircum
ENCODING 94
SWIDTH 633 0
DWIDTH 7 0
BBX 6 7 1 1
BITMAP
08
18
18
28
68
44
84
ENDCHAR
STARTCHAR underscore
ENCODING 95
SWIDTH 500 0
DWIDTH 6 0
BBX 5 1 0 -1
BITMAP
f8
ENDCHAR
STARTCHAR grave
ENCODING 96
SWIDTH 572 0
DWIDTH 6 0
BBX 2 1 4 7
BITMAP
c0
ENDCHAR
STARTCHAR a
ENCODING 97
SWIDTH 608 0
DWIDTH 7 0
BBX 6 6 1 0
BITMAP
3c
64
4c
98
b8
e8
ENDCHAR
STARTCHAR b
ENCODING 98
SWIDTH 608 0
DWIDTH 7 0
BBX 6 8 1 0
BITMAP
20
40
5c
74
64
48
98
f0
ENDCHAR
STARTCHAR c
ENCODING 99
SWIDTH 503 0
DWIDTH 6 0
BBX 5 6 1 0
BITMAP
38
40
80
80
90
70
ENDCHAR
STARTCHAR d
ENCODING 100
SWIDTH 608 0
DWIDTH 7 0
BBX 6 8 1 0
BITMAP
04
04
3c
48
48
98
b8
f8
ENDCHAR
STARTCHAR e
ENCODING 101
SWIDTH 529 0
DWIDTH 6 0
BBX 5 6 1 0
BITMAP
38
48
90
e0
88
70
ENDCHAR
STARTCHAR f
ENCODING 102
SWIDTH 383 0
DWIDTH 4 0
BBX 5 11 1 -2
BITMAP
18
20
20
f0
40
40
40
40
c0
80
80
ENDCHAR
STARTCHAR g
ENCODING 103
SWIDTH 608 0
DWIDTH 7 0
BBX 6 8 1 -2
BITMAP
1c
24
4c
c8
58
68
88
f0
ENDCHAR
STARTCHAR h
ENCODING 104
SWIDTH 620 0
DWIDTH 7 0
BBX 6 8 1 0
BITMAP
20
60
5c
74
64
44
88
88
ENDCHAR
STARTCHAR i
ENCODING 105
SWIDTH 289 0
DWIDTH 3 0
BBX 3 8 1 0
BITMAP
20
00
60
40
40
40
80
80
ENDCHAR
STARTCHAR j
ENCODING 106
SWIDTH 325 0
DWIDTH 4 0
BBX 5 10 0 -2
BITMAP
08
00
18
10
10
10
10
10
20
c0
ENDCHAR
STARTCHAR k
ENCODING 107
SWIDTH 572 0
DWIDTH 6 0
BBX 6 8 1 0
BITMAP
20
40
4c
50
60
70
90
88
ENDCHAR
STARTCHAR l
ENCODING 108
SWIDTH 289 0
DWIDTH 3 0
BBX 3 8 1 0
BITMAP
20
20
40
40
40
40
80
80
ENDCHAR
STARTCHAR m
ENCODING 109
SWIDTH 934 0
DWIDTH 10 0
BBX 9 6 1 0
BITMAP
5980
6a80
6c80
c880
8900
8900
ENDCHAR
STARTCHAR n
ENCODING 110
SWIDTH 620 0
DWIDTH 7 0
BBX 6 6 1 0
BITMAP
5c
74
64
44
88
88
ENDCHAR
STARTCHAR o
ENCODING 111
SWIDTH 566 0
DWIDTH 6 0
BBX 5 6 1 0
BITMAP
38
48
88
88
98
70
ENDCHAR
STARTCHAR p
ENCODING 112
SWIDTH 608 0
DWIDTH 7 0
BBX 6 8 1 -2
BITMAP
7c
74
64
48
48
f0
80
80
ENDCHAR
STARTCHAR q
ENCODING 113
SWIDTH 608 0
DWIDTH 7 0
BBX 6 8 1 -2
BITMAP
3c
64
48
98
b8
e8
08
10
ENDCHAR
STARTCHAR r
ENCODING 114
SWIDTH 478 0
DWIDTH 5 0
BBX 5 6 1 0
BITMAP
58
60
60
c0
80
80
ENDCHAR
STARTCHAR s
ENCODING 115
SWIDTH 489 0
DWIDTH 5 0
BBX 5 6 1 0
BITMAP
38
40
60
30
90
f0
ENDCHAR
STARTCHAR t
ENCODING 116
SWIDTH 383 0
DWIDTH 4 0
BBX 4 7 1 0
BITMAP
60
f0
40
40
80
80
60
ENDCHAR
STARTCHAR u
ENCODING 117
SWIDTH 620 0
DWIDTH 7 0
BBX 6 6 1 0
BITMAP
44
44
88
98
b8
e8
ENDCHAR
STARTCHAR v
ENCODING 118
SWIDTH 545 0
DWIDTH 6 0
BBX 5 6 2 0
BITMAP
88
90
90
a0
a0
40
ENDCHAR
STARTCHAR w
ENCODING 119
SWIDTH 795 0
DWIDTH 9 0
BBX 8 6 1 0
BITMAP
99
9a
aa
ac
cc
c8
ENDCHAR
STARTCHAR x
ENCODING 120
SWIDTH 541 0
DWIDTH 6 0
BBX 6 6 1 0
BITMAP
64
28
30
30
50
88
ENDCHAR
STARTCHAR y
ENCODING 121
SWIDTH 548 0
DWIDTH 6 0
BBX 6 8 1 -2
BITMAP
c4
48
58
50
60
60
40
80
ENDCHAR
STARTCHAR z
ENCODING 122
SWIDTH 536 0
DWIDTH 6 0
BBX 6 6 0 0
BITMAP
7c
08
10
20
40
f8
ENDCHAR
STARTCHAR braceleft
ENCODING 123
SWIDTH 325 0
DWIDTH 4 0
BBX 4 10 1 -2
BITMAP
30
20
60
40
c0
40
40
80
80
40
ENDCHAR
STARTCHAR bar
ENCODING 124
SWIDTH 233 0
DWIDTH 3 0
BBX 3 10 0 -2
BITMAP
20
20
40
40
40
40
40
40
80
80
ENDCHAR
STARTCHAR braceright
ENCODING 125
SWIDTH 325 0
DWIDTH 4 0
BBX 4 10 0 -2
BITMAP
20
10
20
20
30
20
40
40
40
c0
ENDCHAR
STARTCHAR asciitilde
ENCODING 126
SWIDTH 633 0
DWIDTH 7 0
BBX 7 3 1 2
BITMAP
62
92
8c
ENDCHAR
STARTCHAR nobreakspace
ENCODING 160
SWIDTH 316 0
DWIDTH 3 0
BBX 1 1 0 0
BITMAP
00
ENDCHAR
STARTCHAR Aogonek
ENCODING 161
SWIDTH 687 0
DWIDTH 8 0
BBX 7 9 0 -1
BITMAP
0c
0c
14
34
24
7e
42
82
18
ENDCHAR
STARTCHAR breve
ENCODING 162
SWIDTH 566 0
DWIDTH 6 0
BBX 4 1 3 7
BITMAP
f0
ENDCHAR
STARTCHAR Lstroke
ENCODING 163
SWIDTH 545 0
DWIDTH 6 0
BBX 6 8 0 0
BITMAP
30
20
30
20
e0
40
40
7c
ENDCHAR
STARTCHAR currency
ENCODING 164
SWIDTH 633 0
DWIDTH 7 0
BBX 8 8 0 0
BITMAP
41
3a
24
24
44
24
7c
86
ENDCHAR
STARTCHAR Lcaron
ENCODING 165
SWIDTH 630 0
DWIDTH 7 0
BBX 6 9 1 0
BITMAP
04
6c
48
40
40
40
c0
80
f8
ENDCHAR
STARTCHAR Sacute
ENCODING 166
SWIDTH 553 0
DWIDTH 6 0
BBX 6 10 1 0
BITMAP
38
00
3c
60
60
30
18
08
88
f0
ENDCHAR
STARTCHAR section
ENCODING 167
SWIDTH 633 0
DWIDTH 7 0
BBX 6 10 1 -2
BITMAP
3c
60
40
70
48
48
38
08
88
f0
ENDCHAR
STARTCHAR diaeresis
ENCODING 168
SWIDTH 566 0
DWIDTH 6 0
BBX 3 1 3 7
BITMAP
a0
ENDCHAR
STARTCHAR Scaron
ENCODING 169
SWIDTH 553 0
DWIDTH 6 0
BBX 6 10 1 0
BITMAP
38
00
3c
60
60
30
18
08
88
f0
ENDCHAR
STARTCHAR Scedilla
ENCODING 170
SWIDTH 553 0
DWIDTH 6 0
BBX 6 11 1 -3
BITMAP
3c
60
60
30
18
08
88
f0
10
10
30
ENDCHAR
STARTCHAR Tcaron
ENCODING 171
SWIDTH 623 0
DWIDTH 7 0
BBX 7 10 1 0
BITMAP
38
00
fe
10
10
20
20
20
20
60
ENDCHAR
STARTCHAR Zacute
ENCODING 172
SWIDTH 578 0
DWIDTH 6 0
BBX 7 10 0 0
BITMAP
1c
00
3e
04
08
18
30
60
40
fc
ENDCHAR
STARTCHAR hyphen
ENCODING 173
SWIDTH 313 0
DWIDTH 3 0
BBX 3 1 1 3
BITMAP
e0
ENDCHAR
STARTCHAR Zcaron
ENCODING 174
SWIDTH 578 0
DWIDTH 6 0
BBX 7 10 0 0
BITMAP
1c
00
3e
04
08
18
30
60
40
fc
ENDCHAR
STARTCHAR Zabovedot
ENCODING 175
SWIDTH 578 0
DWIDTH 6 0
BBX 7 10 0 0
BITMAP
08
00
3e
04
08
18
30
60
40
fc
ENDCHAR
STARTCHAR degree
ENCODING 176
SWIDTH 269 0
DWIDTH 3 0
BBX 2 2 2 6
BITMAP
c0
c0
ENDCHAR
STARTCHAR aogonek
ENCODING 177
SWIDTH 608 0
DWIDTH 7 0
BBX 6 7 1 -1
BITMAP
3c
64
4c
98
b8
e8
30
ENDCHAR
STARTCHAR ogonek
ENCODING 178
SWIDTH 566 0
DWIDTH 6 0
BBX 2 1 2 -2
BITMAP
c0
ENDCHAR
STARTCHAR lstroke
ENCODING 179
SWIDTH 289 0
DWIDTH 3 0
BBX 4 8 0 0
BITMAP
20
20
30
20
c0
40
40
40
ENDCHAR
STARTCHAR acute
ENCODING 180
SWIDTH 566 0
DWIDTH 6 0
BBX 3 1 4 7
BITMAP
e0
ENDCHAR
STARTCHAR lcaron
ENCODING 181
SWIDTH 540 0
DWIDTH 6 0
BBX 6 9 1 0
BITMAP
04
2c
28
40
40
40
40
80
80
ENDCHAR
STARTCHAR sacute
ENCODING 182
SWIDTH 489 0
DWIDTH 5 0
BBX 5 8 1 0
BITMAP
70
00
38
40
60
30
90
f0
ENDCHAR
STARTCHAR caron
ENCODING 183
SWIDTH 568 0
DWIDTH 6 0
BBX 3 1 4 7
BITMAP
e0
ENDCHAR
STARTCHAR cedilla
ENCODING 184
SWIDTH 566 0
DWIDTH 6 0
BBX 2 3 2 -2
BITMAP
40
40
c0
ENDCHAR
STARTCHAR scaron
ENCODING 185
SWIDTH 489 0
DWIDTH 5 0
BBX 5 8 1 0
BITMAP
70
00
38
40
60
30
90
f0
ENDCHAR
STARTCHAR scedilla
ENCODING 186
SWIDTH 489 0
DWIDTH 5 0
BBX 5 9 1 -3
BITMAP
38
40
60
30
90
f0
10
10
30
ENDCHAR
STARTCHAR tcaron
ENCODING 187
SWIDTH 383 0
DWIDTH 4 0
BBX 4 10 1 0
BITMAP
20
60
40
60
f0
40
40
80
80
60
ENDCHAR
STARTCHAR zacute
ENCODING 188
SWIDTH 536 0
DWIDTH 6 0
BBX 6 8 0 0
BITMAP
38
00
7c
08
10
20
40
f8
ENDCHAR
STARTCHAR doubleacute
ENCODING 189
SWIDTH 566 0
DWIDTH 6 0
BBX 4 1 3 7
BITMAP
f0
ENDCHAR
STARTCHAR zcaron
ENCODING 190
SWIDTH 536 0
DWIDTH 6 0
BBX 6 8 0 0
BITMAP
38
00
7c
08
10
20
40
f8
ENDCHAR
STARTCHAR zabovedot
ENCODING 191
SWIDTH 536 0
DWIDTH 6 0
BBX 6 8 0 0
BITMAP
10
00
7c
08
10
20
40
f8
ENDCHAR
STARTCHAR Racute
ENCODING 192
SWIDTH 632 0
DWIDTH 7 0
BBX 6 10 1 0
BITMAP
38
00
7c
44
44
48
70
d0
88
8c
ENDCHAR
STARTCHAR Aacute
ENCODING 193
SWIDTH 687 0
DWIDTH 8 0
BBX 7 9 0 0
BITMAP
0e
0c
0c
14
34
24
7e
42
82
ENDCHAR
STARTCHAR Acircumflex
ENCODING 194
SWIDTH 687 0
DWIDTH 8 0
BBX 7 9 0 0
BITMAP
1c
0c
0c
14
34
24
7e
42
82
ENDCHAR
STARTCHAR Abreve
ENCODING 195
SWIDTH 687 0
DWIDTH 8 0
BBX 7 10 0 0
BITMAP
1e
00
0c
0c
14
34
24
7e
42
82
ENDCHAR
STARTCHAR Adiaeresis
ENCODING 196
SWIDTH 687 0
DWIDTH 8 0
BBX 7 9 0 0
BITMAP
0a
0c
0c
14
34
24
7e
42
82
ENDCHAR
STARTCHAR Lacute
ENCODING 197
SWIDTH 545 0
DWIDTH 6 0
BBX 5 10 1 0
BITMAP
e0
00
60
40
40
40
40
c0
80
f8
ENDCHAR
STARTCHAR Cacute
ENCODING 198
SWIDTH 679 0
DWIDTH 7 0
BBX 7 10 1 0
BITMAP
38
00
1e
60
40
c0
80
80
c4
78
ENDCHAR
STARTCHAR Ccedilla
ENCODING 199
SWIDTH 679 0
DWIDTH 7 0
BBX 7 10 1 -2
BITMAP
1e
60
40
c0
80
80
c4
78
20
60
ENDCHAR
STARTCHAR Ccaron
ENCODING 200
SWIDTH 679 0
DWIDTH 7 0
BBX 7 10 1 0
BITMAP
38
00
1e
60
40
c0
80
80
c4
78
ENDCHAR
STARTCHAR Eacute
ENCODING 201
SWIDTH 547 0
DWIDTH 6 0
BBX 6 9 1 0
BITMAP
08
7c
40
40
78
40
c0
80
f8
ENDCHAR
STARTCHAR Eogonek
ENCODING 202
SWIDTH 547 0
DWIDTH 6 0
BBX 6 9 1 -1
BITMAP
7c
40
40
78
40
c0
80
f8
30
ENDCHAR
STARTCHAR Ediaeresis
ENCODING 203
SWIDTH 547 0
DWIDTH 6 0
BBX 6 9 1 0
BITMAP
28
7c
40
40
78
40
c0
80
f8
ENDCHAR
STARTCHAR Ecaron
ENCODING 204
SWIDTH 547 0
DWIDTH 6 0
BBX 6 10 1 0
BITMAP
38
00
7c
40
40
78
40
c0
80
f8
ENDCHAR
STARTCHAR Iacute
ENCODING 205
SWIDTH 289 0
DWIDTH 3 0
BBX 4 9 1 0
BITMAP
70
20
20
40
40
40
40
80
80
ENDCHAR
STARTCHAR Icircumflex
ENCODING 206
SWIDTH 289 0
DWIDTH 3 0
BBX 4 9 1 0
BITMAP
70
20
20
40
40
40
40
80
80
ENDCHAR
STARTCHAR Dcaron
ENCODING 207
SWIDTH 743 0
DWIDTH 8 0
BBX 8 10 1 0
BITMAP
1c
00
3e
63
41
41
41
42
86
f8
ENDCHAR
STARTCHAR Dstroke
ENCODING 208
SWIDTH 743 0
DWIDTH 8 0
BBX 8 8 1 0
BITMAP
3e
23
61
f1
41
42
46
fc
ENDCHAR
STARTCHAR Nacute
ENCODING 209
SWIDTH 741 0
DWIDTH 8 0
BBX 8 10 1 0
BITMAP
1c
00
21
61
52
52
4a
4a
86
84
ENDCHAR
STARTCHAR Ncaron
ENCODING 210
SWIDTH 741 0
DWIDTH 8 0
BBX 8 10 1 0
BITMAP
1c
00
21
61
52
52
4a
4a
86
84
ENDCHAR
STARTCHAR Oacute
ENCODING 211
SWIDTH 777 0
DWIDTH 9 0
BBX 8 9 1 0
BITMAP
04
1e
22
43
81
82
82
c4
78
ENDCHAR
STARTCHAR Ocircumflex
ENCODING 212
SWIDTH 777 0
DWIDTH 9 0
BBX 8 9 1 0
BITMAP
14
1e
22
43
81
82
82
c4
78
ENDCHAR
STARTCHAR Odoubleacute
ENCODING 213
SWIDTH 777 0
DWIDTH 9 0
BBX 8 10 1 0
BITMAP
1e
00
1e
22
43
81
82
82
c4
78
ENDCHAR
STARTCHAR Odiaeresis
ENCODING 214
SWIDTH 777 0
DWIDTH 9 0
BBX 8 9 1 0
BITMAP
14
1e
22
43
81
82
82
c4
78
ENDCHAR
STARTCHAR multiply
ENCODING 215
SWIDTH 633 0
DWIDTH 7 0
BBX 7 7 1 0
BITMAP
42
24
28
10
28
4c
84
ENDCHAR
STARTCHAR Rcaron
ENCODING 216
SWIDTH 632 0
DWIDTH 7 0
BBX 6 10 1 0
BITMAP
38
00
7c
44
44
48
70
d0
88
8c
ENDCHAR
STARTCHAR Uring
ENCODING 217
SWIDTH 693 0
DWIDTH 8 0
BBX 7 11 1 0
BITMAP
18
18
00
42
42
44
c4
84
84
88
78
ENDCHAR
STARTCHAR Uacute
ENCODING 218
SWIDTH 693 0
DWIDTH 8 0
BBX 7 9 1 0
BITMAP
1c
42
42
44
c4
84
84
88
78
ENDCHAR
STARTCHAR Udoubleacute
ENCODING 219
SWIDTH 693 0
DWIDTH 8 0
BBX 7 10 1 0
BITMAP
3c
00
42
42
44
c4
84
84
88
78
ENDCHAR
STARTCHAR Udiaeresis
ENCODING 220
SWIDTH 693 0
DWIDTH 8 0
BBX 7 9 1 0
BITMAP
14
42
42
44
c4
84
84
88
78
ENDCHAR
STARTCHAR Yacute
ENCODING 221
SWIDTH 608 0
DWIDTH 7 0
BBX 6 9 2 0
BITMAP
38
8c
48
50
70
20
60
40
40
ENDCHAR
STARTCHAR Tcedilla
ENCODING 222
SWIDTH 623 0
DWIDTH 7 0
BBX 7 11 1 -3
BITMAP
fe
10
10
20
20
20
20
60
08
08
18
ENDCHAR
STARTCHAR ssharp
ENCODING 223
SWIDTH 595 0
DWIDTH 7 0
BBX 6 11 1 -2
BITMAP
38
24
28
70
50
48
44
44
d8
80
80
ENDCHAR
STARTCHAR racute
ENCODING 224
SWIDTH 478 0
DWIDTH 5 0
BBX 5 8 1 0
BITMAP
70
00
58
60
60
c0
80
80
ENDCHAR
STARTCHAR aacute
ENCODING 225
SWIDTH 608 0
DWIDTH 7 0
BBX 6 7 1 0
BITMAP
08
3c
64
4c
98
b8
e8
ENDCHAR
STARTCHAR acircumflex
ENCODING 226
SWIDTH 608 0
DWIDTH 7 0
BBX 6 7 1 0
BITMAP
28
3c
64
4c
98
b8
e8
ENDCHAR
STARTCHAR abreve
ENCODING 227
SWIDTH 608 0
DWIDTH 7 0
BBX 6 8 1 0
BITMAP
3c
00
3c
64
4c
98
b8
e8
ENDCHAR
STARTCHAR adiaeresis
ENCODING 228
SWIDTH 608 0
DWIDTH 7 0
BBX 6 7 1 0
BITMAP
14
3c
64
4c
98
b8
e8
ENDCHAR
STARTCHAR lacute
ENCODING 229
SWIDTH 289 0
DWIDTH 3 0
BBX 4 10 1 0
BITMAP
70
00
20
20
40
40
40
40
80
80
ENDCHAR
STARTCHAR cacute
ENCODING 230
SWIDTH 503 0
DWIDTH 6 0
BBX 5 8 1 0
BITMAP
70
00
38
40
80
80
90
70
ENDCHAR
STARTCHAR ccedilla
ENCODING 231
SWIDTH 503 0
DWIDTH 6 0
BBX 5 8 1 -2
BITMAP
38
40
80
80
90
70
20
60
ENDCHAR
STARTCHAR ccaron
ENCODING 232
SWIDTH 503 0
DWIDTH 6 0
BBX 5 8 1 0
BITMAP
70
00
38
40
80
80
90
70
ENDCHAR
STARTCHAR eacute
ENCODING 233
SWIDTH 529 0
DWIDTH 6 0
BBX 6 7 1 0
BITMAP
0c
38
48
90
e0
88
70
ENDCHAR
STARTCHAR eogonek
ENCODING 234
SWIDTH 529 0
DWIDTH 6 0
BBX 5 7 1 -1
BITMAP
38
48
90
e0
88
70
30
ENDCHAR
STARTCHAR ediaeresis
ENCODING 235
SWIDTH 529 0
DWIDTH 6 0
BBX 5 7 1 0
BITMAP
28
38
48
90
e0
88
70
ENDCHAR
STARTCHAR ecaron
ENCODING 236
SWIDTH 529 0
DWIDTH 6 0
BBX 5 8 1 0
BITMAP
70
00
38
48
90
e0
88
70
ENDCHAR
STARTCHAR iacute
ENCODING 237
SWIDTH 289 0
DWIDTH 3 0
BBX 4 7 1 0
BITMAP
70
40
40
40
80
80
80
ENDCHAR
STARTCHAR icircumflex
ENCODING 238
SWIDTH 289 0
DWIDTH 3 0
BBX 3 7 1 0
BITMAP
e0
40
40
40
80
80
80
ENDCHAR
STARTCHAR dcaron
ENCODING 239
SWIDTH 900 0
DWIDTH 10 0
BBX 9 9 1 0
BITMAP
0080
0580
0500
3c00
4800
4800
9800
b800
f800
ENDCHAR
STARTCHAR dstroke
ENCODING 240
SWIDTH 810 0
DWIDTH 9 0
BBX 8 8 1 0
BITMAP
1f
04
3c
48
48
98
b8
f8
ENDCHAR
STARTCHAR nacute
ENCODING 241
SWIDTH 620 0
DWIDTH 7 0
BBX 6 8 1 0
BITMAP
38
00
5c
74
64
44
88
88
ENDCHAR
STARTCHAR ncaron
ENCODING 242
SWIDTH 620 0
DWIDTH 7 0
BBX 6 8 1 0
BITMAP
38
00
5c
74
64
44
88
88
ENDCHAR
STARTCHAR oacute
ENCODING 243
SWIDTH 566 0
DWIDTH 6 0
BBX 6 7 1 0
BITMAP
0c
38
48
88
88
98
70
ENDCHAR
STARTCHAR ocircumflex
ENCODING 244
SWIDTH 566 0
DWIDTH 6 0
BBX 5 7 1 0
BITMAP
28
38
48
88
88
98
70
ENDCHAR
STARTCHAR odoubleacute
ENCODING 245
SWIDTH 566 0
DWIDTH 6 0
BBX 5 8 1 0
BITMAP
78
00
38
48
88
88
98
70
ENDCHAR
STARTCHAR odiaeresis
ENCODING 246
SWIDTH 566 0
DWIDTH 6 0
BBX 5 7 1 0
BITMAP
28
38
48
88
88
98
70
ENDCHAR
STARTCHAR division
ENCODING 247
SWIDTH 633 0
DWIDTH 7 0
BBX 7 6 1 0
BITMAP
18
00
00
fe
00
30
ENDCHAR
STARTCHAR rcaron
ENCODING 248
SWIDTH 478 0
DWIDTH 5 0
BBX 5 8 1 0
BITMAP
70
00
58
60
60
c0
80
80
ENDCHAR
STARTCHAR uring
ENCODING 249
SWIDTH 620 0
DWIDTH 7 0
BBX 6 9 1 0
BITMAP
18
18
00
44
44
88
98
b8
e8
ENDCHAR
STARTCHAR uacute
ENCODING 250
SWIDTH 620 0
DWIDTH 7 0
BBX 6 7 1 0
BITMAP
1c
44
44
88
98
b8
e8
ENDCHAR
STARTCHAR udoubleacute
ENCODING 251
SWIDTH 620 0
DWIDTH 7 0
BBX 6 8 1 0
BITMAP
3c
00
44
44
88
98
b8
e8
ENDCHAR
STARTCHAR udiaeresis
ENCODING 252
SWIDTH 620 0
DWIDTH 7 0
BBX 6 7 1 0
BITMAP
28
44
44
88
98
b8
e8
ENDCHAR
STARTCHAR yacute
ENCODING 253
SWIDTH 548 0
DWIDTH 6 0
BBX 6 9 1 -2
BITMAP
1c
c4
48
58
50
60
60
40
80
ENDCHAR
STARTCHAR tcedilla
ENCODING 254
SWIDTH 383 0
DWIDTH 4 0
BBX 4 10 1 -3
BITMAP
60
f0
40
40
80
80
60
20
20
60
ENDCHAR
STARTCHAR abovedot
ENCODING 255
SWIDTH 566 0
DWIDTH 6 0
BBX 1 1 4 7
BITMAP
80
ENDCHAR
ENDFONT
